<?xml version="1.0" encoding="utf-8"?>
<!-- Generator: Adobe Illustrator 19.2.0, SVG Export Plug-In . SVG Version: 6.00 Build 0)  -->
<svg version="1.1" id="Layer_1" xmlns="http://www.w3.org/2000/svg" xmlns:xlink="http://www.w3.org/1999/xlink" x="0px" y="0px"
	 viewBox="0 0 640 1280" style="enable-background:new 0 0 640 1280;" xml:space="preserve">
<style type="text/css">
	.st0{fill:#0080FF;}
</style>
<g transform="matrix(1,0,0,1,-651,-144)">
	<g transform="matrix(0.885444,2.18279e-32,-6.89227e-16,0.885444,121.456,-158.501)">
		<g id="Layer1">
			<path class="st0" d="M921.9,1184.1c4.2,3.7,10,5.5,17.4,5.5c12.2,0,22.3-5.6,30.2-16.8c9.6-13.6,14.4-31.1,14.4-52.8
				c0-10.5-2.4-19.7-7.2-27.8c-4.8-8.1-12.2-12.1-22.3-12.1c-13.1,0-23.2,7.4-30.3,22.2c-0.6,1.2-1,2.6-1.2,3.9
				c-0.7,5.2-2.6,19.5-2.6,19.5c-3.1,24-4.7,38.8-4.7,44.4C915.6,1175.8,917.7,1180.5,921.9,1184.1z M1108,1221.4
				c-14.9,0-33.3-1.5-50.4-16.8c-5.5-4.9-10.2-12.5-8-30.2c3-24.2,7.5-83.9,19-197.7c2.8-28,12.5-45.6,27.3-52.9
				c6.8-3.6,14.9-5.3,24.4-5.3c32.1,0,48.1,14.4,48.1,43.3c0,2.4-0.2,4.8-0.4,7.5c-1.5,31.2-12.6,103.1-29.7,138.5
				c-12.4,25.8-28,45.9-41.4,55.2c-1.5,17.3-4.3,25.6,18.4,26.6c0.8-0.1,1.5-0.2,2.3-0.2c7-0.2,16.1-0.5,26.2-1.2
				c13.8-1,14.1-2.8,29.4-6c-6.4-12.3-9.6-26.5-9.6-42.6c0-24.5,9.2-45.8,27.7-64.1s40.5-27.4,66.2-27.4c18.3,0,33.2,4,44.6,11.9
				c11.4,8,17.5,18.7,17.5,32.2c0.1,29.4-28,62.5-69.2,87.8c-3.5,2.2-7.1,4.3-10.8,6.3c5,2.1,10.5,3.1,16.5,3.1
				c17.8,0,32.7-4.7,51.4-18.5c4.6,3.7,9.3,10.5,11.5,17.9c0.8,2.7-0.1,5.5-2.3,7.2c-9.3,7.1-20,13-32.2,17.7
				c-13.7,5.2-27.8,7.8-42.3,7.8c-19.7,0-36-5-48.9-14.9l-0.3-0.2c-31.4,9.8-53.3,15.5-83.4,15.2c-0.4,0-0.8,0-1.2,0L1108,1221.4z
				 M632.1,1177.2c-2.3,9.9,10.1,15.1,14.3,3.8c3.7-9.9,13.9-37.6,13.9-37.6c-1.6,1-9,5.6-13.9,10.3
				C640.4,1159.4,633.9,1169.3,632.1,1177.2z M1101.1,1127.4c22.3-23.9,43.3-142.1,43.3-161c0-11.4-4.4-17.1-13.1-17.1
				c-5.6,0.5-9.3,4-11.1,10.7c-1.8,6.6-3.5,17.4-5.1,32.3C1113.5,1007.2,1101.1,1127.4,1101.1,1127.4z M746.2,1018.8
				c-5.4,14.6-25.5,69.1-30.2,81.7c1.3-0.4,11.5-3.6,15.3-4.7c7-2,14-3.9,21-5.7C750.3,1066.3,748.2,1042.5,746.2,1018.8z
				 M871.1,1130.3c5.3-42.4,19.4-206.5,19.4-206.5s51.4-16.6,48.8,13.6c-2.7,31.5-10.4,121.9-10.4,121.9
				c11.2-7.8,25.4-11.8,42.5-11.8c17.1,0,31.9,7,44.3,21c12.4,14,18.7,30.4,18.7,49.2c0,2.6-0.1,5.3-0.4,8.2
				c-2.6,31.1-13.2,54.9-31.6,71.1c-18.4,16.3-42.5,24.4-72.2,24.4c-12-0.5-22.4-2.6-31.2-6.4c-8.9-3.8-15.4-8.6-19.7-14.3
				c-3.8-4.9-6.8-9.6-8.8-14c-8.1,19.6-22.8,34.8-51.6,34.7c-50.9-0.2-58-37.8-60-59.5c-1.5-16.7-4.8-52.2-5.3-57.9
				c-17.9,4.9-44.7,15.8-44.7,15.8c-4.7,12.6-17.1,46.7-24.8,67.7c-5.3,14.4-15.8,33.8-49.5,33.5c-12.5-0.1-45.6-15.6-30-57.2
				c3.6-9.5,10.8-15,19-21c23.1-16.7,46.6-25.4,46.6-25.4L736,939.2c0,0,51.5-21.2,54.1,9.5c2.3,27.5,10.6,125.1,11.3,132.4
				c7.2-0.8,14.5-1.4,21.8-1.7c9.2-0.4,18.3-0.3,27.5,0.5c4,0.3,7.9,0.7,11.9,1.3l-1.1,9.4c-0.7-0.1-13.5-0.9-17.6-0.9
				c-13.9-0.1-27.7,1.1-41.4,3.2c0,0,3.9,44.6,5.2,58.7c0.9,9.8,2.9,44.1,24,44C843.2,1195.4,858.9,1194.9,871.1,1130.3z
				 M1218.5,1166.3l0.4-0.2c1.5-0.8,6.8-3.6,9.3-5.1c27.9-16.2,48.7-38.5,48.2-64.8c-0.1-8.2-2.2-13.8-6.6-16.7
				c-4.4-3-9.2-4.5-14.5-4.5c-11.2,0-21,6.2-29.4,18.7c-8.4,12.5-12.7,27.3-12.7,44.5c0,11,1.7,20.3,5.1,27.7L1218.5,1166.3z"/>
		</g>
	</g>
</g>
</svg>
