<?xml version="1.0" standalone="no"?>
<!DOCTYPE svg PUBLIC "-//W3C//DTD SVG 1.1//EN" "http://www.w3.org/Graphics/SVG/1.1/DTD/svg11.dtd">
<svg width="100%" height="100%" viewBox="0 0 617 271" version="1.1" xmlns="http://www.w3.org/2000/svg" xmlns:xlink="http://www.w3.org/1999/xlink" xml:space="preserve" style="fill-rule:evenodd;clip-rule:evenodd;stroke-linejoin:round;stroke-miterlimit:1.41421;">
    <g id="Layer1" transform="matrix(0.885444,2.18279e-32,-6.89227e-16,0.885444,-529.544,-302.501)">
        <path d="M910.232,610.074C914.27,613.626 919.865,615.403 927.018,615.403C938.786,615.403 948.477,610.016 956.091,599.244C965.321,586.18 969.935,569.22 969.935,548.363C969.935,538.279 967.628,529.34 963.013,521.547C958.398,513.755 951.246,509.858 941.555,509.858C928.965,509.858 919.229,516.999 912.348,531.28C911.772,532.481 911.389,533.764 911.212,535.084C910.516,540.142 908.674,553.864 908.674,553.864C905.675,577.012 904.175,591.28 904.175,596.666C904.175,602.052 906.194,606.521 910.232,610.074ZM1089.71,646C1075.31,646 1057.64,644.564 1041.16,629.778C1035.85,625.016 1031.32,617.697 1033.42,600.633C1036.3,577.333 1040.61,519.796 1051.71,410.071C1054.45,383.064 1063.77,366.112 1078.05,359.033C1084.61,355.608 1092.45,353.895 1101.58,353.895C1132.48,353.895 1147.94,367.825 1147.94,395.684C1147.94,397.968 1147.7,400.358 1147.58,402.878C1146.15,432.978 1135.42,502.259 1118.97,536.386C1106.97,561.296 1091.96,580.645 1079.05,589.62C1077.59,606.264 1074.92,614.336 1096.76,615.253C1097.5,615.14 1098.24,615.073 1098.99,615.056C1105.74,614.906 1114.48,614.58 1124.25,613.853C1137.6,612.859 1137.87,611.115 1152.56,608.047C1146.39,596.195 1143.31,582.508 1143.31,566.985C1143.31,543.407 1152.2,522.806 1169.98,505.18C1187.76,487.554 1209.04,478.74 1233.82,478.74C1251.48,478.74 1265.82,482.575 1276.83,490.243C1287.84,497.912 1293.66,508.268 1293.69,521.318C1293.76,549.654 1266.68,581.551 1226.94,605.989C1223.54,608.077 1220.06,610.11 1216.49,612.082C1221.34,614.065 1226.66,615.056 1232.44,615.056C1249.64,615.056 1263.96,610.524 1281.99,597.201C1286.38,600.737 1290.91,607.288 1293.05,614.41C1293.81,616.973 1292.92,619.742 1290.82,621.389C1281.9,628.253 1271.55,633.918 1259.8,638.405C1246.61,643.441 1233.01,645.959 1219.02,645.959C1199.99,645.959 1184.28,641.156 1171.88,631.55L1171.59,631.322C1141.29,640.738 1120.24,646.301 1091.17,645.987C1090.78,645.994 1090.41,645.998 1090.06,645.999L1089.71,646ZM630.857,603.34C628.615,612.929 640.637,617.922 644.674,607.03C648.217,597.47 658.101,570.823 658.093,570.828C656.529,571.788 649.403,576.271 644.674,580.759C638.891,586.246 632.636,595.725 630.857,603.34ZM1083.01,555.366C1104.55,532.302 1124.76,418.406 1124.76,400.137C1124.76,389.176 1120.54,383.696 1112.12,383.696C1106.73,384.152 1103.16,387.578 1101.4,393.972C1099.65,400.366 1098.01,410.756 1096.49,425.142C1094.97,439.529 1083.01,555.366 1083.01,555.366ZM740.901,450.631C735.701,464.694 716.3,517.205 711.799,529.396C713.024,528.995 722.856,525.909 726.565,524.823C733.278,522.857 740.034,521.034 746.829,519.376C744.823,496.463 742.85,473.548 740.901,450.631ZM861.247,558.148C866.378,517.282 879.948,359.033 879.948,359.033C879.948,359.033 929.503,343.013 927.018,372.097C924.42,402.509 916.981,489.575 916.981,489.575C927.826,482.011 941.497,478.23 957.995,478.23C974.492,478.23 988.741,484.991 1000.74,498.513C1012.74,512.036 1018.74,527.85 1018.74,545.957C1018.74,548.478 1018.62,551.113 1018.39,553.864C1015.85,583.888 1005.7,606.75 987.933,622.45C970.166,638.15 946.977,646 918.365,646C906.829,645.542 896.791,643.479 888.254,639.812C879.717,636.145 873.371,631.561 869.218,626.06C865.523,621.31 862.697,616.801 860.743,612.533C852.903,631.465 838.749,646.105 811.018,645.999C761.966,645.813 755.074,609.553 753.146,588.612C751.666,572.539 748.488,538.268 748.011,532.84C730.775,537.575 704.905,548.081 704.905,548.081C700.422,560.235 688.386,593.076 680.958,613.308C675.86,627.195 665.711,645.935 633.26,645.578C621.201,645.446 589.314,630.558 604.298,590.42C607.721,581.252 614.713,575.921 622.594,570.213C644.875,554.078 667.562,545.718 667.562,545.718L731.049,373.901C731.049,373.901 780.66,353.509 783.18,383.105C785.44,409.65 793.437,503.748 794.05,510.772C801.023,509.977 808.022,509.418 815.034,509.144C823.864,508.798 832.716,508.9 841.528,509.58C845.355,509.875 849.169,510.288 852.972,510.803L851.92,519.887C851.258,519.822 838.953,519.02 834.942,518.983C821.585,518.861 808.237,520.023 795.037,522.058C795.037,522.058 798.795,565.033 800.073,578.601C800.96,588.016 802.829,621.157 823.207,621.014C834.364,620.936 849.504,620.394 861.247,558.148ZM1196.19,592.833L1196.56,592.637C1198.01,591.876 1203.15,589.147 1205.57,587.74C1232.44,572.1 1252.49,550.654 1252.05,525.266C1251.92,517.37 1249.93,511.99 1245.69,509.128C1241.44,506.267 1236.8,504.836 1231.75,504.836C1220.97,504.836 1211.5,510.845 1203.36,522.863C1195.22,534.881 1191.14,549.187 1191.14,565.783C1191.14,576.429 1192.77,585.333 1196.03,592.493L1196.19,592.833Z" style="fill:white;"/>
    </g>
</svg>
