<svg id="Layer_1" data-name="Layer 1" xmlns="http://www.w3.org/2000/svg" viewBox="0 0 100 42"><defs><style>.cls-1{fill:#0080ff;}</style></defs><title>able-blue</title><g id="Layer1"><path class="cls-1" d="M44.692,36.834a3.549,3.549,0,0,0,2.421.766,4.96,4.96,0,0,0,4.193-2.323,12.374,12.374,0,0,0,2-7.316,7.4,7.4,0,0,0-1-3.856,3.348,3.348,0,0,0-3.095-1.681q-2.724,0-4.213,3.08a1.821,1.821,0,0,0-.164.547c-0.1.727-.366,2.7-0.366,2.7q-0.649,4.992-.649,6.154A2.456,2.456,0,0,0,44.692,36.834ZM70.579,42a9.724,9.724,0,0,1-7-2.332c-0.766-.685-1.419-1.737-1.116-4.191,0.415-3.35,1.037-11.623,2.638-27.4,0.4-3.883,1.739-6.321,3.8-7.338A7.264,7.264,0,0,1,72.291,0q6.685,0,6.687,6.009c0,0.328-.035.672-0.052,1.034-0.206,4.328-1.754,14.289-4.127,19.2-1.731,3.582-3.9,6.364-5.758,7.654-0.211,2.393-.6,3.554,2.554,3.686a2.507,2.507,0,0,1,.322-0.028c0.974-.022,2.234-0.068,3.643-0.173a22.847,22.847,0,0,0,4.083-.835,12.572,12.572,0,0,1-1.334-5.9,12.106,12.106,0,0,1,3.847-8.887,12.638,12.638,0,0,1,9.208-3.8,10.659,10.659,0,0,1,6.2,1.654A5.228,5.228,0,0,1,100,24.073c0.01,4.074-3.9,8.661-9.628,12.174q-0.736.45-1.507,0.876a6.04,6.04,0,0,0,2.3.428,11.18,11.18,0,0,0,7.147-2.567,5.314,5.314,0,0,1,1.6,2.474,0.936,0.936,0,0,1-.322,1,17.565,17.565,0,0,1-4.474,2.447,16.407,16.407,0,0,1-5.882,1.086,10.8,10.8,0,0,1-6.8-2.072l-0.042-.033c-4.37,1.354-7.406,2.154-11.6,2.109l-0.16,0h-0.05ZM4.4,35.866A1.038,1.038,0,1,0,6.39,36.4c0.511-1.375,1.937-5.206,1.935-5.205A13.474,13.474,0,0,0,6.39,32.619,7.539,7.539,0,0,0,4.4,35.866Zm65.216-6.9c3.107-3.316,6.022-19.693,6.022-22.319q0-2.364-1.823-2.364a1.734,1.734,0,0,0-1.546,1.478,31.266,31.266,0,0,0-.708,4.482C71.338,12.313,69.613,28.968,69.613,28.968ZM20.269,13.909c-0.75,2.022-3.548,9.572-4.2,11.325,0.177-.058,1.595-0.5,2.13-0.658q1.452-.424,2.923-0.783Q20.69,18.852,20.269,13.909ZM37.627,29.368c0.74-5.876,2.7-28.63,2.7-28.63s7.148-2.3,6.789,1.878L45.666,19.509a10.123,10.123,0,0,1,5.916-1.631,8,8,0,0,1,6.165,2.916,9.936,9.936,0,0,1,2.6,6.822q0,0.544-.05,1.137-0.55,6.475-4.393,9.862A14.622,14.622,0,0,1,45.865,42a12.222,12.222,0,0,1-4.343-.89,6.609,6.609,0,0,1-2.746-1.977,10,10,0,0,1-1.222-1.945A7.12,7.12,0,0,1,30.382,42c-7.075-.027-8.069-5.24-8.347-8.251-0.213-2.311-.672-7.239-0.741-8.019-2.486.681-6.217,2.191-6.217,2.191-0.647,1.748-2.383,6.47-3.454,9.379-0.735,2-2.2,4.691-6.88,4.64C3,41.92-1.595,39.78.566,34.008A6.487,6.487,0,0,1,3.205,31.1a30.336,30.336,0,0,1,6.486-3.522l9.157-24.7S26-.055,26.367,4.2c0.326,3.817,1.479,17.347,1.568,18.356,1.006-.114,2.015-0.195,3.027-0.234a33.027,33.027,0,0,1,3.821.063q0.828,0.064,1.651.176l-0.152,1.306c-0.1-.009-1.87-0.125-2.449-0.13a35.78,35.78,0,0,0-5.756.442s0.542,6.179.726,8.13c0.128,1.354.4,6.119,3.337,6.1C33.75,38.4,35.933,38.318,37.627,29.368Zm48.31,4.987,0.053-.028c0.209-.109.95-0.5,1.3-0.7,3.876-2.249,6.767-5.332,6.7-8.983a2.65,2.65,0,0,0-.917-2.32,3.532,3.532,0,0,0-2.011-.617q-2.332,0-4.095,2.592a10.716,10.716,0,0,0-1.763,6.171,9.239,9.239,0,0,0,.705,3.84Z" transform="translate(0)"/></g></svg>