<?xml version="1.0" standalone="no"?><!DOCTYPE svg PUBLIC "-//W3C//DTD SVG 1.1//EN" "http://www.w3.org/Graphics/SVG/1.1/DTD/svg11.dtd"><svg width="100%" height="100%" viewBox="0 0 225 225" version="1.1" xmlns="http://www.w3.org/2000/svg" xmlns:xlink="http://www.w3.org/1999/xlink" xml:space="preserve" style="fill-rule:evenodd;clip-rule:evenodd;stroke-linejoin:round;stroke-miterlimit:1.41421;"><path d="M66.853,66.134c2.157,0 4.313,2.157 4.313,4.313l0,12.221c2.264,-3.557 5.406,-6.741 9.084,-8.802c21.613,-12.112 31.048,8.429 46.088,20.753c5.834,4.78 12.321,8.747 18.87,12.49c1.231,-0.472 2.875,0 2.875,0c0,0 -4.167,-10.832 4.313,-13.659c6.47,-2.156 10.064,2.876 10.783,5.032l3.594,7.908c0.719,-7.189 6.47,-13.658 14.377,-13.658l0,28.754c-2.875,0 -6.469,-0.719 -8.626,-2.876l22.284,48.163c12.936,-1.848 24.843,6.395 29.473,17.971l0.719,2.157l-5.032,2.157c9.209,15.347 0.658,35.942 -18.69,35.942c-10.686,0 -20.746,-7.923 -22.284,-18.69l-4.313,2.156l-79.074,0c-7.718,21.611 -38.324,21.51 -46.006,0l-12.94,0c-5.522,0 -10.292,-4.313 -10.064,-10.063c0.487,-12.264 6.172,-30.389 12.221,-40.975c-1.438,-0.719 -2.157,-2.156 -2.157,-3.594l0,-13.658c0,-2.157 2.157,-4.313 4.313,-4.313l-36.661,0c-2.157,-0.001 -4.313,-2.157 -4.313,-4.313l0,-61.103c0,-2.156 2.156,-4.313 4.313,-4.313l62.54,0ZM135.863,184.744c0.664,-3.324 12.437,-40.531 3.086,-49.756c-11.179,-11.028 -31.605,-7.226 -41.396,-19.333c-4.076,-5.04 -2.841,-15.601 3.805,-17.891c2.525,-0.871 7.058,0.252 9.199,1.078c11.13,4.293 19.569,9.121 29.619,16.174c2.025,3.571 7.136,5.982 10.782,1.438l15.815,44.568c3.076,8.669 -30.91,23.722 -30.91,23.722ZM108.566,157.978c4.061,0.07 4.49,-2.993 4.293,-8.457c5.032,0.838 5.371,6.705 5.032,10.783c-0.656,7.912 -1.392,15.818 -2.156,23.722l-7.169,-26.048ZM38.099,112.583l-10.783,-13.382l4.756,-2.433l-4.756,-12.773l10.783,15.206l-4.037,2.157l4.037,11.225ZM117.538,48.647l0,6.47l6.47,0l0,-0.719c0,-2.876 10.064,-2.876 10.064,0c0,2.875 -2.157,7.188 -5.032,7.188c-2.157,0 -4.313,-2.875 -5.032,-5.751l-6.47,0c0,3.272 -1.381,6.049 -4.313,8.627c-3.054,2.685 -6.47,4.313 -10.783,4.313c-11.501,0 -14.377,-10.783 -14.377,-16.534c0,-13.658 10.783,-24.441 24.441,-24.441c10.783,0 23.157,6.826 23.722,17.972c0.108,2.118 0.162,2.875 -2.156,2.875l-16.534,0Z" style="fill:#000;"/></svg>