<?xml version="1.0" standalone="no"?><!DOCTYPE svg PUBLIC "-//W3C//DTD SVG 1.1//EN" "http://www.w3.org/Graphics/SVG/1.1/DTD/svg11.dtd"><svg width="100%" height="100%" viewBox="0 0 225 225" version="1.1" xmlns="http://www.w3.org/2000/svg" xmlns:xlink="http://www.w3.org/1999/xlink" xml:space="preserve" style="fill-rule:evenodd;clip-rule:evenodd;stroke-linejoin:round;stroke-miterlimit:1.41421;"><path d="M66.853,66.134C69.01,66.134 71.166,68.291 71.166,70.447L71.166,82.668C73.43,79.111 76.572,75.927 80.25,73.866C101.863,61.754 111.298,82.295 126.338,94.619C132.172,99.399 138.659,103.366 145.208,107.109C146.439,106.637 148.083,107.109 148.083,107.109C148.083,107.109 143.916,96.277 152.396,93.45C158.866,91.294 162.46,96.326 163.179,98.482L166.773,106.39C167.492,99.201 173.243,92.732 181.15,92.732L181.15,121.486C178.275,121.486 174.681,120.767 172.524,118.61L194.808,166.773C207.744,164.925 219.651,173.168 224.281,184.744L225,186.901L219.968,189.058C229.177,204.405 220.626,225 201.278,225C190.592,225 180.532,217.077 178.994,206.31L174.681,208.466L95.607,208.466C87.889,230.077 57.283,229.976 49.601,208.466L36.661,208.466C31.139,208.466 26.369,204.153 26.597,198.403C27.084,186.139 32.769,168.014 38.818,157.428C37.38,156.709 36.661,155.272 36.661,153.834L36.661,140.176C36.661,138.019 38.818,135.863 40.974,135.863L4.313,135.863C2.156,135.862 0,133.706 0,131.55L0,70.447C0,68.291 2.156,66.134 4.313,66.134L66.853,66.134ZM135.863,184.744C136.527,181.42 148.3,144.213 138.949,134.988C127.77,123.96 107.344,127.762 97.553,115.655C93.477,110.615 94.712,100.054 101.358,97.764C103.883,96.893 108.416,98.016 110.557,98.842C121.687,103.135 130.126,107.963 140.176,115.016C142.201,118.587 147.312,120.998 150.958,116.454L166.773,161.022C169.849,169.691 135.863,184.744 135.863,184.744ZM108.566,157.978C112.627,158.048 113.056,154.985 112.859,149.521C117.891,150.359 118.23,156.226 117.891,160.304C117.235,168.216 116.499,176.122 115.735,184.026L108.566,157.978ZM38.099,112.583L27.316,99.201L32.072,96.768L27.316,83.995L38.099,99.201L34.062,101.358L38.099,112.583ZM117.538,48.647L117.538,55.117L124.008,55.117L124.008,54.398C124.008,51.522 134.072,51.522 134.072,54.398C134.072,57.273 131.915,61.586 129.04,61.586C126.883,61.586 124.727,58.711 124.008,55.835L117.538,55.835C117.538,59.107 116.157,61.884 113.225,64.462C110.171,67.147 106.755,68.775 102.442,68.775C90.941,68.775 88.065,57.992 88.065,52.241C88.065,38.583 98.848,27.8 112.506,27.8C123.289,27.8 135.663,34.626 136.228,45.772C136.336,47.89 136.39,48.647 134.072,48.647L117.538,48.647Z" style="fill:#0080ff;"/></svg>