<?xml version="1.0" standalone="no"?><!DOCTYPE svg PUBLIC "-//W3C//DTD SVG 1.1//EN" "http://www.w3.org/Graphics/SVG/1.1/DTD/svg11.dtd"><svg width="100%" height="100%" viewBox="0 0 48 48" version="1.1" xmlns="http://www.w3.org/2000/svg" xmlns:xlink="http://www.w3.org/1999/xlink" xml:space="preserve" style="fill-rule:evenodd;clip-rule:evenodd;stroke-linejoin:round;stroke-miterlimit:1.41421;"><path d="M11.258,47.334l-5.41,0c-0.426,0 -0.771,-0.346 -0.771,-0.771l0,-12.117c0,-0.425 0.345,-0.771 0.771,-0.771l36.304,0c0.426,0 0.771,0.346 0.771,0.771l0,12.117c0,0.425 -0.345,0.771 -0.771,0.771l-5.568,0l0,-7.968c0,-0.471 -0.383,-0.853 -0.854,-0.853c-0.471,0 -0.854,0.382 -0.854,0.853l0,7.968l-21.911,0l0,-7.968c0,-0.471 -0.382,-0.853 -0.853,-0.853c-0.472,0 -0.854,0.382 -0.854,0.853l0,7.968ZM32.284,31.999l-7.236,0c-0.109,0 -0.197,-0.196 -0.197,-0.437l0,-2.035c0,-0.24 0.088,-0.436 0.197,-0.436l7.236,0c0.108,0 0.196,0.196 0.196,0.436l0,2.035c0,0.241 -0.088,0.437 -0.196,0.437ZM22.952,31.999l-7.236,0c-0.108,0 -0.196,-0.196 -0.196,-0.437l0,-2.035c0,-0.24 0.088,-0.436 0.196,-0.436l7.236,0c0.109,0 0.197,0.196 0.197,0.436l0,2.035c0,0.241 -0.088,0.437 -0.197,0.437ZM35.789,27.494l-23.578,0c-0.6,0 -1.088,-0.487 -1.088,-1.087l0,-17.521c0,-0.6 0.488,-1.087 1.088,-1.087l10.793,0l0,-6.137c0,-0.55 0.446,-0.996 0.996,-0.996c0.55,0 0.996,0.446 0.996,0.996l0,6.137l10.793,0c0.6,0 1.088,0.487 1.088,1.087l0,17.521c0,0.6 -0.488,1.087 -1.088,1.087ZM31.851,19.011l-15.815,0c-0.532,0 -0.963,0.338 -0.963,0.755l0,3.035c0,0.416 0.431,0.755 0.963,0.755l15.815,0c0.531,-0.001 0.962,-0.339 0.962,-0.755l0,-3.035c0,-0.417 -0.431,-0.755 -0.962,-0.755l0,0ZM18.959,11.762c1.037,0 1.879,0.842 1.879,1.879c0,1.037 -0.842,1.879 -1.879,1.879c-1.037,0 -1.879,-0.842 -1.879,-1.879c0,-1.037 0.842,-1.879 1.879,-1.879ZM28.919,11.762c1.037,0 1.879,0.842 1.879,1.879c0,1.037 -0.842,1.879 -1.879,1.879c-1.037,0 -1.879,-0.842 -1.879,-1.879c0,-1.037 0.842,-1.879 1.879,-1.879Z" style="fill:#000;"/></svg>