<?xml version="1.0" standalone="no"?><!DOCTYPE svg PUBLIC "-//W3C//DTD SVG 1.1//EN" "http://www.w3.org/Graphics/SVG/1.1/DTD/svg11.dtd"><svg width="100%" height="100%" viewBox="0 0 100 100" version="1.1" xmlns="http://www.w3.org/2000/svg" xmlns:xlink="http://www.w3.org/1999/xlink" xml:space="preserve" style="fill-rule:evenodd;clip-rule:evenodd;stroke-linejoin:round;stroke-miterlimit:1.41421;"><clipPath id="_clip1"><rect id="Artboard1" x="0" y="0" width="100" height="100"/></clipPath><g clip-path="url(#_clip1)"><path id="a" d="M38.948,15.903c1.274,-1.441 2.694,-2.752 4.209,-3.935c4.464,-3.486 9.733,-5.838 15.185,-7.294c0.792,-0.212 1.589,-0.405 2.39,-0.58c0.936,-0.205 1.876,-0.387 2.821,-0.546c1.097,-0.184 2.2,-0.339 3.306,-0.466c1.728,-0.198 3.463,-0.329 5.2,-0.401c0.808,-0.033 1.616,-0.052 2.425,-0.062c0.356,-0.003 0.712,-0.005 1.068,-0.005c1.098,0.005 2.196,0.029 3.294,0.071l-0.456,12.024c-0.221,-0.008 -0.441,-0.016 -0.662,-0.023c-0.213,-0.007 -0.427,-0.013 -0.64,-0.018c-0.826,-0.018 -1.651,-0.025 -2.476,-0.016c-2.217,0.023 -4.433,0.152 -6.634,0.415c-1.925,0.23 -3.838,0.563 -5.721,1.025c-0.744,0.183 -1.484,0.386 -2.218,0.611l0.091,0.01c4.164,0.466 8.283,1.403 12.202,2.894c2.067,0.786 4.076,1.726 5.998,2.819c1.996,1.136 3.898,2.437 5.677,3.89c1.809,1.478 3.489,3.112 5.022,4.874c0.949,1.092 1.84,2.233 2.678,3.411l0.107,0.152l0.099,0.141l-9.864,6.893c-0.131,-0.188 -0.264,-0.374 -0.398,-0.56c-0.131,-0.179 -0.263,-0.357 -0.397,-0.534c-0.366,-0.48 -0.744,-0.952 -1.137,-1.412c-0.748,-0.873 -1.545,-1.704 -2.389,-2.485c-1.733,-1.604 -3.663,-2.988 -5.733,-4.125c-0.639,-0.351 -1.291,-0.679 -1.953,-0.983c-3.31,-1.522 -6.863,-2.452 -10.471,-2.922c1.498,0.99 2.989,1.992 4.469,3.009c1.786,1.228 3.557,2.477 5.297,3.769c1.158,0.861 2.304,1.74 3.422,2.653c0.99,0.809 1.961,1.644 2.877,2.537c0.585,0.57 1.147,1.164 1.659,1.801c0.508,0.633 0.965,1.31 1.321,2.041c0.127,0.262 0.239,0.528 0.338,0.801l-11.297,4.143c0.071,0.195 0.16,0.385 0.269,0.562c0.004,0.007 0.009,0.014 0.013,0.021c0.003,0.004 0.006,0.009 0.009,0.013c0.002,0.002 0.006,0.009 0.005,0.007c-0.002,-0.002 -0.003,-0.004 -0.004,-0.006c-0.036,-0.047 -0.073,-0.091 -0.111,-0.136c-0.063,-0.073 -0.128,-0.145 -0.194,-0.216c-0.537,-0.57 -1.124,-1.091 -1.719,-1.599c-0.755,-0.644 -1.532,-1.263 -2.318,-1.869c-0.989,-0.762 -1.993,-1.503 -3.006,-2.233c-1.116,-0.804 -2.244,-1.593 -3.377,-2.372c-0.735,-0.506 -1.473,-1.007 -2.212,-1.504c1.871,6.706 2.849,13.66 3.063,20.617c0.049,1.572 0.058,3.146 0.03,4.718c-0.06,3.297 -0.285,6.591 -0.683,9.864c-0.129,1.067 -0.278,2.131 -0.447,3.192c0.81,0.034 1.62,0.077 2.429,0.127c4.77,0.3 9.523,0.884 14.221,1.768c5.129,0.965 10.191,2.287 15.131,3.969c1.979,0.673 3.939,1.404 5.875,2.191c0.939,0.382 1.871,0.778 2.799,1.184l-4.829,11.022c-0.334,-0.146 -0.67,-0.291 -1.005,-0.435c-0.332,-0.141 -0.665,-0.281 -0.998,-0.419c-2.527,-1.039 -5.094,-1.977 -7.699,-2.802c-4.392,-1.389 -8.883,-2.463 -13.425,-3.227c-12.845,-2.161 -26.054,-1.841 -38.857,0.457c-4.872,0.874 -9.696,2.033 -14.425,3.495c-1.611,0.498 -3.211,1.032 -4.795,1.611c-0.672,0.245 -1.34,0.499 -2.004,0.763c-0.43,0.171 -0.86,0.346 -1.284,0.533l-0.017,0.008l-4.904,-10.989c0.122,-0.055 0.244,-0.107 0.367,-0.16c1.112,-0.473 2.239,-0.914 3.373,-1.333c1.173,-0.434 2.355,-0.845 3.544,-1.237c3.111,-1.027 6.264,-1.926 9.445,-2.711c2.517,-0.621 5.052,-1.17 7.6,-1.646c-2.567,-0.878 -4.415,-3.312 -4.415,-6.175c0,-3.6 2.923,-6.523 6.524,-6.523c3.6,0 6.523,2.923 6.523,6.523c0,2.11 -1.004,3.988 -2.561,5.181c3.392,-0.477 6.802,-0.825 10.22,-1.038c0.312,-0.02 0.624,-0.038 0.936,-0.055c0.389,-2.018 0.675,-4.056 0.888,-6.1c0.283,-2.723 0.434,-5.46 0.453,-8.197c0.01,-1.402 -0.015,-2.805 -0.075,-4.206c-0.291,-6.75 -1.412,-13.493 -3.56,-19.904c-0.126,0.837 -0.21,1.68 -0.257,2.525c-0.132,2.384 0.032,4.78 0.405,7.137c0.11,0.695 0.239,1.386 0.382,2.075l-11.782,2.445c-0.182,-0.877 -0.346,-1.757 -0.486,-2.642c-0.302,-1.907 -0.497,-3.832 -0.568,-5.762c-0.169,-4.635 0.386,-9.321 1.899,-13.717c0.039,-0.114 0.079,-0.228 0.12,-0.342c-0.429,0.28 -0.84,0.588 -1.226,0.925c-0.354,0.307 -0.687,0.638 -0.998,0.988c-0.215,0.241 -0.42,0.492 -0.613,0.75c-1.296,1.732 -2.096,3.788 -2.586,5.881c-0.085,0.362 -0.161,0.726 -0.228,1.091c-0.085,0.46 -0.157,0.922 -0.217,1.386c-0.085,0.654 -0.147,1.31 -0.191,1.967c-0.053,0.82 -0.074,1.64 -0.077,2.461l-12.033,-0.037c0.001,-0.541 0.008,-1.082 0.025,-1.623c0.037,-1.145 0.114,-2.289 0.237,-3.429c0.389,-3.604 1.25,-7.18 2.79,-10.472c1.072,-2.293 2.473,-4.432 4.191,-6.293c0.834,-0.902 1.739,-1.738 2.706,-2.496c-1.442,-0.298 -2.906,-0.488 -4.378,-0.546c-0.804,-0.032 -1.608,-0.022 -2.412,0.025l-0.137,0.009l-0.776,-12.008c0.18,-0.012 0.36,-0.023 0.54,-0.032c0.549,-0.027 1.098,-0.042 1.647,-0.046c0.121,-0.001 0.242,-0.001 0.362,0c1.464,0.011 2.925,0.104 4.378,0.283c4.677,0.577 9.234,1.997 13.493,3.999c0.772,0.363 1.535,0.745 2.288,1.147Z" style="fill:#08f;"/></g></svg>