<?xml version="1.0" standalone="no"?><!DOCTYPE svg PUBLIC "-//W3C//DTD SVG 1.1//EN" "http://www.w3.org/Graphics/SVG/1.1/DTD/svg11.dtd"><svg width="100%" height="100%" viewBox="0 0 225 225" version="1.1" xmlns="http://www.w3.org/2000/svg" xmlns:xlink="http://www.w3.org/1999/xlink" xml:space="preserve" style="fill-rule:evenodd;clip-rule:evenodd;stroke-linejoin:round;stroke-miterlimit:1.41421;"><circle cx="112.5" cy="112.5" r="112.5" style="fill:#ebebeb;"/><clipPath id="_clip1"><circle cx="112.5" cy="112.5" r="112.5"/></clipPath><g clip-path="url(#_clip1)"><path d="M51.939,69.023c1.87,0 3.738,1.869 3.738,3.738l0,10.591c1.962,-3.082 4.685,-5.842 7.873,-7.628c18.731,-10.497 26.908,7.305 39.943,17.986c5.056,4.142 10.678,7.581 16.354,10.824c1.067,-0.409 2.492,0 2.492,0c0,0 -3.612,-9.387 3.738,-11.837c5.607,-1.869 8.722,2.492 9.345,4.361l3.115,6.853c0.623,-6.23 5.607,-11.837 12.46,-11.837l0,24.921c-2.492,0 -5.607,-0.624 -7.476,-2.493l19.313,41.741c11.211,-1.601 21.53,5.543 25.543,15.575l0.623,1.87l-4.361,1.869c7.981,13.301 0.57,31.15 -16.198,31.15c-9.261,0 -17.98,-6.867 -19.313,-16.198l-3.738,1.868l-68.531,0c-6.689,18.73 -33.214,18.642 -39.871,0l-11.215,0c-4.786,0 -8.92,-3.738 -8.722,-8.721c0.422,-10.629 5.349,-26.337 10.591,-35.512c-1.246,-0.623 -1.869,-1.868 -1.869,-3.115l0,-11.836c0,-1.87 1.869,-3.738 3.738,-3.738l-31.773,0c-1.869,-0.001 -3.738,-1.87 -3.738,-3.738l0,-52.956c0,-1.869 1.869,-3.738 3.738,-3.738l54.201,0ZM111.748,171.818c0.575,-2.881 10.779,-35.127 2.674,-43.122c-9.688,-9.557 -27.391,-6.262 -35.876,-16.755c-3.533,-4.368 -2.462,-13.521 3.298,-15.506c2.188,-0.754 6.117,0.219 7.972,0.935c9.646,3.72 16.96,7.905 25.67,14.017c1.755,3.095 6.184,5.185 9.344,1.246l13.707,38.626c2.665,7.513 -26.789,20.559 -26.789,20.559ZM88.091,148.621c3.519,0.061 3.891,-2.594 3.72,-7.329c4.361,0.726 4.655,5.811 4.361,9.345c-0.568,6.857 -1.206,13.709 -1.868,20.559l-6.213,-22.575ZM27.019,109.279l-9.345,-11.598l4.122,-2.109l-4.122,-11.07l9.345,13.179l-3.499,1.869l3.499,9.729ZM95.866,53.867l0,5.608l5.608,0l0,-0.623c0,-2.493 8.722,-2.493 8.722,0c0,2.491 -1.87,6.229 -4.361,6.229c-1.87,0 -3.738,-2.491 -4.361,-4.984l-5.608,0c0,2.836 -1.197,5.242 -3.738,7.477c-2.646,2.327 -5.607,3.738 -9.345,3.738c-9.967,0 -12.46,-9.346 -12.46,-14.33c0,-11.837 9.345,-21.182 21.182,-21.182c9.345,0 20.07,5.916 20.559,15.576c0.094,1.835 0.141,2.491 -1.868,2.491l-14.33,0Z" style="fill:#0080ff;"/></g></svg>